<?xml version="1.0" encoding="utf-8"?>
<!-- Generator: Adobe Illustrator 15.1.0, SVG Export Plug-In . SVG Version: 6.00 Build 0)  -->
<!DOCTYPE svg PUBLIC "-//W3C//DTD SVG 1.1//EN" "http://www.w3.org/Graphics/SVG/1.1/DTD/svg11.dtd">
<svg version="1.1" id="Layer_1" xmlns="http://www.w3.org/2000/svg" xmlns:xlink="http://www.w3.org/1999/xlink" x="0px" y="0px"
	 width="612px" height="495px" viewBox="0 0 612 495" enable-background="new 0 0 612 495" xml:space="preserve">
<g>
	<g>
		<path fill-rule="evenodd" clip-rule="evenodd" fill="#FFFFFF" d="M-107.379-60.449c286.126,0,572.252,0,858.379,0
			c0,203.722,0,407.444,0,611.166c-288.417,0-576.829,0-865.246,0C-109.672,349.279-123.396,129.546-107.379-60.449z
			 M174.169,15.089c-21.75,28.608-17.015,83.702-41.202,109.872c-35.61,3.304-85.221-7.395-109.873,6.867
			c-11.65,101.325-11.042,248.799,0,350.219c171.819,11.424,391.277,11.424,563.097,0c15.797-98.653,2.456-226.444,6.867-336.485
			c-26.971-11.943-28.357-49.469-54.937-61.803c-52.071-17.736-38.788,29.883-61.804,41.202
			c-18.647-33.999-20.363-84.93-41.202-116.739C350.152,12.529,247.784-0.568,174.169,15.089z"/>
		<path fill-rule="evenodd" clip-rule="evenodd" d="M435.116,8.222c20.839,31.809,22.555,82.74,41.202,116.739
			c23.016-11.319,9.732-58.938,61.804-41.202c26.579,12.334,27.966,49.86,54.937,61.803c-4.411,110.041,8.93,237.832-6.867,336.485
			c-171.819,11.424-391.277,11.424-563.097,0c-11.042-101.419-11.65-248.894,0-350.219c24.651-14.262,74.263-3.563,109.873-6.867
			c24.188-26.17,19.452-81.264,41.202-109.872C247.784-0.568,350.152,12.529,435.116,8.222z M208.504,56.291
			c-13.101,39.546-12.095,93.199-41.202,116.739c-32.046,0-64.092,0-96.139,0c0,89.271,0,178.543,0,267.814
			c157.942,0,315.884,0,473.826,0c0-89.271,0-178.543,0-267.814c-36.624,0-73.249,0-109.873,0
			c-14.175-36.184-20.94-79.775-34.335-116.739C336.689,56.291,272.597,56.291,208.504,56.291z"/>
		<path fill-rule="evenodd" clip-rule="evenodd" fill="#FFFFFF" d="M400.781,56.291c13.395,36.964,20.16,80.556,34.335,116.739
			c36.624,0,73.249,0,109.873,0c0,89.271,0,178.543,0,267.814c-157.941,0-315.884,0-473.826,0c0-89.271,0-178.543,0-267.814
			c32.046,0,64.092,0,96.139,0c29.107-23.54,28.102-77.193,41.202-116.739C272.597,56.291,336.689,56.291,400.781,56.291z
			 M304.643,420.243c205.308,1.053,174.932-319.596-27.468-281.548C111.396,169.859,140.042,419.4,304.643,420.243z"/>
		<path fill-rule="evenodd" clip-rule="evenodd" d="M277.175,138.695c202.4-38.048,232.776,282.601,27.468,281.548
			C140.042,419.4,111.396,169.859,277.175,138.695z M215.372,310.371c24.75,88.85,184.898,76.564,185.41-34.335
			c0.272-59.062-34.336-102.698-109.873-89.271C235.192,196.668,193.735,232.701,215.372,310.371z"/>
		<path fill-rule="evenodd" clip-rule="evenodd" fill="#FFFFFF" d="M290.909,186.765c75.537-13.427,110.145,30.209,109.873,89.271
			c-0.512,110.9-160.659,123.185-185.41,34.335C193.735,232.701,235.192,196.668,290.909,186.765z M297.776,227.967
			c10.226,28.687,39.642,38.185,41.203,75.537C441.628,303.952,323.549,139.409,297.776,227.967z"/>
		<path fill-rule="evenodd" clip-rule="evenodd" d="M338.979,303.504c-1.561-37.353-30.977-46.851-41.203-75.537
			C323.549,139.409,441.628,303.952,338.979,303.504z"/>
	</g>
</g>
</svg>
